<svg width="180" height="192" viewBox="0 0 180 192" fill="none" xmlns="http://www.w3.org/2000/svg">
<path d="M0 42C0 25.4315 13.4315 12 30 12H150C166.569 12 180 25.4315 180 42V162C180 178.569 166.569 192 150 192H30C13.4315 192 0 178.569 0 162V42Z" fill="white"/>
<path d="M90.9473 96.7051H117.402C123.099 103.769 125.947 111.22 125.947 119.059C125.947 128.173 122.598 135.829 115.898 142.027C109.245 148.225 101.042 151.324 91.2891 151.324C78.6198 151.324 67.8646 146.516 59.0234 136.9C50.1823 127.285 45.7617 115.572 45.7617 101.764C45.7617 87.9095 50.2507 76.3796 59.2285 67.1738C68.252 57.9681 79.5085 53.3652 92.998 53.3652C97.6009 53.3652 102.705 54.2995 108.311 56.168V83.9219C103.936 81.8711 99.9479 80.8457 96.3477 80.8457C89.8307 80.8457 84.4987 82.8737 80.3516 86.9297C76.25 90.9857 74.1992 96.2493 74.1992 102.721C74.1992 109.329 76.1133 114.57 79.9414 118.443C83.7695 122.317 88.9421 124.254 95.459 124.254C99.6061 124.254 101.68 123.046 101.68 120.631C101.68 118.808 100.312 117.896 97.5781 117.896H90.9473V96.7051Z" fill="#FFD4D4"/>
<rect width="21" height="31" transform="translate(123 31)" fill="white"/>
<path d="M135.996 43C138.209 43 140 45.6207 140 48.8512C140 54.7025 131.997 55.1487 127.999 61C124 55.1487 124 54.7025 124 48.8513C124 45.6207 125.791 43.0001 127.999 43.0001C129.998 43.0001 130.998 44.463 131.998 47.3884C132.997 44.463 133.997 43 135.996 43Z" fill="#FFD1D1"/>
<rect width="28" height="31" transform="translate(19 31)" fill="white"/>
<path d="M42.81 57.8822L42.1096 56.9921L47.1298 52.4138L47.8302 53.3039C48.6035 54.2872 48.481 55.7677 47.5566 56.6106L45.883 58.1364C44.9591 58.978 43.5833 58.8642 42.81 57.8822ZM34.548 45.5477C34.3547 45.3019 34.0111 45.2735 33.78 45.4842C33.5477 45.6949 33.5171 46.0647 33.7116 46.3106L41.4097 56.1021L42.247 55.3383L34.548 45.5477ZM38.731 41.7325C38.5376 41.4866 38.1941 41.4582 37.9629 41.669C37.7318 41.8797 37.7012 42.2495 37.8945 42.4954L45.5933 52.2867L46.4299 51.5241L38.731 41.7325ZM44.7573 53.0487L37.0579 43.2581C36.6721 42.7666 35.9834 42.7108 35.5214 43.131C35.0592 43.5526 34.996 44.292 35.3857 44.7851L43.0835 54.5755L44.7573 53.0487ZM33.0822 44.5922C33.3655 44.3342 33.7064 44.2267 34.0503 44.2047C34.0431 44.0844 34.0371 43.9634 34.0472 43.8412C34.0989 43.2167 34.3743 42.649 34.8215 42.2412C35.2698 41.8335 35.8343 41.6354 36.4148 41.6834C36.5206 41.6922 36.6224 41.7178 36.7239 41.7423C36.8029 41.3685 36.9857 41.032 37.263 40.7791C37.2894 40.7548 37.3231 40.7485 37.3517 40.7267L32.1622 38.8608L33.0164 44.6649C33.0397 44.6416 33.058 44.6145 33.0822 44.5922Z" fill="#FFD4D4"/>
<path d="M135.916 95.8207L136.867 95.2056L140.961 100.627L140.01 101.242C138.96 101.922 137.497 101.663 136.743 100.665L135.379 98.8571C134.626 97.8594 134.866 96.5 135.916 95.8207ZM148.96 88.7334C149.223 88.5637 149.283 88.2241 149.095 87.9746C148.906 87.7238 148.541 87.6592 148.278 87.8301L137.817 94.5909L138.501 95.4951L148.96 88.7334ZM152.373 93.251C152.636 93.0811 152.696 92.7417 152.507 92.492C152.319 92.2424 151.953 92.1778 151.691 92.3476L141.23 99.109L141.912 100.012L152.373 93.251ZM140.549 98.2062L151.008 91.4441C151.534 91.1054 151.653 90.4248 151.277 89.9259C150.9 89.4267 150.169 89.2955 149.642 89.638L139.183 96.3985L140.549 98.2062ZM150.047 87.3622C150.278 87.6681 150.354 88.0175 150.344 88.3619C150.464 88.3658 150.585 88.3711 150.706 88.3924C151.323 88.5016 151.863 88.8282 152.228 89.3112C152.592 89.7952 152.737 90.3757 152.636 90.9492C152.617 91.0538 152.582 91.1527 152.549 91.2515C152.914 91.3648 153.232 91.5778 153.458 91.8773C153.48 91.9059 153.483 91.94 153.502 91.9705L155.839 86.9756L149.981 87.2899C150.002 87.3153 150.027 87.336 150.047 87.3622Z" fill="#FFD4D4"/>
</svg>
